<svg width="40" height="40" fill="none" xmlns="http://www.w3.org/2000/svg"><rect width="40" height="40" rx="10" fill="#FFE1D8"/><path d="M20 29.004a29.777 29.777 0 01-3.5-3.531c-1.6-1.911-3.5-4.757-3.5-7.47a7 7 0 0111.952-4.95A6.955 6.955 0 0127 18.003c0 2.713-1.9 5.559-3.5 7.47a29.777 29.777 0 01-3.5 3.53zm0-16a5.006 5.006 0 00-5 5c0 1.166.527 3.185 3.035 6.186A27.91 27.91 0 0020 26.304a28.102 28.102 0 001.966-2.111C24.473 21.188 25 19.169 25 18.003a5.006 5.006 0 00-5-5zm0 8a3 3 0 110-6 3 3 0 010 6z" fill="#F75532"/></svg>